<svg width="72" height="34" viewBox="0 0 72 34" fill="none" xmlns="http://www.w3.org/2000/svg">
<g clip-path="url(#clip0_937_328833)">
<path d="M16.937 4.37632C15.977 5.28413 15.1027 6.27758 14.3398 7.35668C15.6256 9.16373 16.6284 11.1849 17.2713 13.3516C18.617 10.1743 21.0427 7.57078 24.0941 5.99496C27.1456 7.57078 29.5798 10.1743 30.917 13.3602C31.5598 11.1849 32.5627 9.16373 33.8484 7.35668C33.077 6.27758 32.2113 5.27557 31.2427 4.37632C29.2113 2.45793 26.777 0.95063 24.0856 0C21.4027 0.95063 18.9684 2.45793 16.937 4.37632Z" fill="url(#paint0_linear_937_328833)"/>
<path d="M2.56281 31.9197C2.75138 30.6094 2.75138 29.3162 2.56281 28.0059C4.76567 30.1127 9.78853 31.1232 14.0914 31.1232C17.5885 31.1232 19.0457 30.3525 19.0457 28.8023C19.0457 26.7384 16.8428 26.5071 11.6057 26.0618C5.85424 25.5479 2.38281 24.6316 2.38281 21.086C2.38281 17.5404 5.50281 15.8789 11.8885 15.8789C16.3714 15.8789 19.0457 16.487 22.3542 17.2834C22.1657 18.5509 22.1657 19.7499 22.3542 20.9404C19.6285 19.8185 16.02 18.6623 11.7428 18.6623C8.12567 18.6623 6.59996 19.3902 6.59996 20.9575C6.59996 22.8331 8.4771 23.3298 13.2685 23.6981C19.3028 24.1691 23.2714 24.9912 23.2714 28.7595C23.2714 32.228 20.0828 33.8981 13.7142 33.8981C9.41996 33.9066 5.51996 33.0159 2.56281 31.9197Z" fill="#034638"/>
<path d="M30.5661 19.4427C30.4975 24.153 30.5661 28.9404 30.7804 33.6507H26.5547C26.7433 27.8356 26.7433 21.9948 26.5547 16.1797C28.1061 16.3681 30.8233 16.4109 32.3747 16.1797C35.9918 21.0356 39.7718 25.823 43.7147 30.5333C43.7833 25.7459 43.7404 20.9414 43.5004 16.1797C44.9833 16.3938 46.3633 16.4109 47.6747 16.1797C47.5118 21.9948 47.5375 27.8356 47.7433 33.6507H42.0604C38.3833 28.8462 34.5604 24.0845 30.5661 19.4427Z" fill="#034638"/>
<path d="M51.7461 16.1349C54.9175 16.1349 57.9004 16.0664 62.3575 16.0664C67.8947 16.0664 70.929 17.3596 70.929 20.4513C70.929 23.2175 68.4604 24.2966 65.4347 24.4165V24.7248C69.189 24.8191 72.009 26.0866 72.009 29.0669C72.009 33.2891 66.2147 33.8029 62.0061 33.8029C57.1032 33.8029 54.9861 33.6659 51.7461 33.6659C52.029 29.2639 52.029 20.5198 51.7461 16.1349ZM62.3747 23.8684C65.2632 23.8684 66.669 23.0206 66.669 21.2906C66.669 19.4407 65.1175 18.807 62.3747 18.807C59.6318 18.807 57.2318 18.807 55.9204 18.8327C55.8775 20.3828 55.8518 22.0442 55.8775 23.8256C57.8661 23.8513 60.0947 23.8684 62.3747 23.8684ZM55.9632 30.951C57.8147 30.9939 59.2461 31.0452 62.2032 31.0452C66.429 31.0452 67.4832 29.8034 67.4832 28.416C67.4832 27.1742 66.4289 26.1379 62.3661 26.1379C60.0861 26.1379 57.8575 26.1379 55.8689 26.1636C55.8689 27.7651 55.9204 29.478 55.9632 30.951Z" fill="#034638"/>
</g>
<defs>
<linearGradient id="paint0_linear_937_328833" x1="23.9999" y1="13.1467" x2="23.9999" y2="-2.98202e-07" gradientUnits="userSpaceOnUse">
<stop stop-color="#84BD00"/>
<stop offset="1" stop-color="#006A52"/>
</linearGradient>
<clipPath id="clip0_937_328833">
<rect width="72" height="34" fill="white"/>
</clipPath>
</defs>
</svg>
