<svg width="186" height="111" viewBox="0 0 186 111" fill="none" xmlns="http://www.w3.org/2000/svg">
<g clip-path="url(#clip0_522_657)">
<path d="M48.0188 27.5891C45.9038 29.5869 43.9776 31.7732 42.2969 34.148C45.1295 38.1248 47.339 42.5728 48.7553 47.3412C51.7201 40.3488 57.0644 34.6192 63.7872 31.1512C70.5099 34.6192 75.8731 40.3488 78.819 47.36C80.2353 42.5728 82.4448 38.1248 85.2774 34.148C83.5778 31.7732 81.6705 29.568 79.5366 27.5891C75.0611 23.3672 69.6979 20.0501 63.7683 17.958C57.8575 20.0501 52.4944 23.3672 48.0188 27.5891Z" fill="url(#paint0_linear_522_657)"/>
<path d="M16.3497 88.2026C16.7651 85.319 16.7651 82.473 16.3497 79.5894C21.2029 84.2258 32.2691 86.4498 41.749 86.4498C49.4538 86.4498 52.6641 84.7536 52.6641 81.3422C52.6641 76.7999 47.8109 76.2911 36.2726 75.311C23.6012 74.1801 15.9531 72.1635 15.9531 64.3606C15.9531 56.5578 22.827 52.9014 36.8958 52.9014C46.7722 52.9014 52.6641 54.2395 59.9534 55.9924C59.538 58.7818 59.538 61.4204 59.9534 64.0402C53.9482 61.5712 45.998 59.0268 36.5747 59.0268C28.6056 59.0268 25.2442 60.6288 25.2442 64.0779C25.2442 68.2055 29.3798 69.2987 39.9361 70.1091C53.2306 71.1457 61.974 72.9551 61.974 81.2479C61.974 88.8811 54.9491 92.5564 40.9181 92.5564C31.4571 92.5752 22.8648 90.6151 16.3497 88.2026Z" fill="#034638"/>
<path d="M78.0449 60.7424C77.8938 71.1085 78.0449 81.6442 78.517 92.0103H69.207C69.6225 79.2129 69.6225 66.3589 69.207 53.5615C72.6251 53.9762 78.6114 54.0704 82.0294 53.5615C89.9986 64.248 98.3265 74.7838 107.013 85.1499C107.164 74.6141 107.07 64.0407 106.541 53.5615C109.808 54.0327 112.849 54.0704 115.738 53.5615C115.379 66.3589 115.436 79.2129 115.889 92.0103H103.369C95.2673 81.4369 86.8449 70.9577 78.0449 60.7424Z" fill="#034638"/>
<path d="M124.707 53.4672C131.694 53.4672 138.266 53.3164 148.086 53.3164C160.285 53.3164 166.97 56.1624 166.97 62.9663C166.97 69.054 161.531 71.4288 154.865 71.6927V72.3712C163.136 72.5785 169.349 75.3679 169.349 81.9268C169.349 91.2186 156.584 92.3495 147.311 92.3495C136.51 92.3495 131.845 92.0479 124.707 92.0479C125.33 82.3603 125.33 63.1171 124.707 53.4672ZM148.124 70.4864C154.488 70.4864 157.585 68.6205 157.585 64.8134C157.585 60.7423 154.166 59.3476 148.124 59.3476C142.081 59.3476 136.793 59.3476 133.904 59.4041C133.809 62.8155 133.753 66.4719 133.809 70.3922C138.19 70.4487 143.1 70.4864 148.124 70.4864ZM133.998 86.0733C138.077 86.1675 141.231 86.2806 147.746 86.2806C157.056 86.2806 159.379 83.5477 159.379 80.4944C159.379 77.7615 157.056 75.481 148.105 75.481C143.081 75.481 138.172 75.481 133.79 75.5376C133.79 79.062 133.904 82.8315 133.998 86.0733Z" fill="#034638"/>
</g>
<defs>
<linearGradient id="paint0_linear_522_657" x1="63.5794" y1="46.8901" x2="63.5794" y2="17.958" gradientUnits="userSpaceOnUse">
<stop stop-color="#84BD00"/>
<stop offset="1" stop-color="#006A52"/>
</linearGradient>
<clipPath id="clip0_522_657">
<rect width="158.628" height="74.8244" fill="white" transform="translate(10.7031 17.958)"/>
</clipPath>
</defs>
</svg>
